<svg xmlns="http://www.w3.org/2000/svg" width="50" height="50" fill="none" viewBox="0 0 50 50"><path fill="#f7bfca" d="M44.003 19.237c-.11-.031-.24-.095-.236-.2.003-.08.083-.137.156-.18a11 11 0 0 1 .828-.447c-1.016-1.813-3.027-3.06-5.271-3.42h-.001a8.4 8.4 0 0 0-2.527-.022c-2.712.393-5.011 2.042-6.865 3.994.834-2.208 1.223-4.594.576-6.888a8 8 0 0 0-.54-1.394c-1.184-2.387-3.495-4.132-5.973-4.355.02.306-.008.616-.087.914-.028.106-.089.232-.199.232-.083 0-.144-.074-.192-.141a10 10 0 0 1-.516-.81c-.11.075-.212.165-.311.255-1.323 1.207-2.322 2.817-2.902 4.59a11.5 11.5 0 0 0-.572 3.552c0 1.527.315 3.048.891 4.44-2.334-1.718-5.111-3.062-8.07-2.917l-.044.002c-3.281.176-6.268 2.265-7.15 5.042.376.083.735.242 1.048.467.09.065.185.167.146.27-.03.077-.121.108-.201.128a10 10 0 0 1-.981.198c.049.103.108.204.168.303 1.026 1.673 2.613 3.08 4.476 4.033.946.483 1.962.849 3.012 1.074 2.104.45 4.319.329 6.302-.299a11.84 11.84 0 0 0-4.91 4.508 11.6 11.6 0 0 0-1.354 3.403v.002c-.427 1.898-.38 3.882.18 5.681q.044.138.094.272c.354-.24.755-.412 1.174-.5.123-.025.284-.026.34.087.043.085-.002.186-.047.27a12 12 0 0 1-.598.988c2.684 1.291 6.208.727 8.617-1.31q.15-.126.292-.259c2.207-2.059 3.078-5.085 3.337-8.048.606 2.521 1.733 4.963 3.799 6.579q.42.327.875.596c2.371 1.398 5.372 1.559 7.609.328a3.2 3.2 0 0 1-.558-1.027c-.039-.119-.058-.276.047-.343.079-.05.182-.018.269.017a11 11 0 0 1 1.122.527c.052-.138.085-.287.114-.433.364-1.82.194-3.783-.439-5.614a11.6 11.6 0 0 0-1.594-3.054 11.8 11.8 0 0 0-3.607-3.22 12.15 12.15 0 0 0 4.955-.99c.986-.427 1.909-.99 2.735-1.656 1.569-1.264 2.79-2.9 3.44-4.678a3 3 0 0 0 .126-.43 3.2 3.2 0 0 1-.983-.117"/><path fill="#f192ad" d="M40.745 19.959c-1.024-1.938-3.53-3.056-5.966-2.704-2.8.406-5.02 2.577-6.598 4.69a2.8 2.8 0 0 1 .92 1.256c1.294-.546 2.73-.818 4.124-1.07l-4.012 1.458q.057.276.054.556l-.001.039v.01l-.002.03-.002.04v.003l-.003.039v.004l6.38-.422c-2.108.506-4.308 1.01-6.433.771l-.006.032-.031.165-.005.023a1.4 1.4 0 0 0 0 .564l.007.032.022.099.003.013.012.046.013.052.007.026.019.08.006.026.006.027.09.038q.187.075.378.14-.225-.048-.45-.085.012.072.017.145a1.2 1.2 0 0 1-.04.37 1.4 1.4 0 0 1-.19.418 2 2 0 0 1-.162.212 2 2 0 0 1-.124.13l-.03.029-.01.01-.02.018-.01.01-.02.018-.042.036-.026.022-.006.005-.1.079h-.001c1.074 1.052 1.897 2.393 2.682 3.695L28.19 27.65l-.007.004-.022.013-.012.007-.024.013-.008.005-.026.015-.009.004-.026.014-.008.005-.026.014-.01.005-.025.014-.008.004-.027.015q-.004 0-.008.004l-.025.013-.012.006-.024.012-.01.005-.024.013-.012.006-.019.01-.02.01-.012.007-.022.01-.013.007-.02.01-.056.03-.036.017-.008.004 2.776 6.07c-1.257-1.845-2.549-3.781-3.05-5.928l-.038.02-.028.016-.009.005-.025.014-.01.006-.036.02a5 5 0 0 0-.346.22l-.048.034-.023.018a3 3 0 0 0-.216.183l-.016.015-.033.031-.025.024-.04.037q-.06.057-.12.11l-.023.02-.019.016a2 2 0 0 1-.172.126 1 1 0 0 1-.174.09c.286 2.581 1.094 5.451 3.25 7.137 1.944 1.521 4.73 1.775 6.656.57.118-.074.234-.154.32-.263.121-.156.172-.36.212-.561.438-2.196-.146-4.668-1.542-6.574a8.9 8.9 0 0 0-4.268-3.138c1.777.392 3.76.206 5.508-.551 2.167-.94 3.931-2.744 4.683-4.805.068-.188.13-.384.106-.574a1.1 1.1 0 0 0-.137-.374"/><path fill="#dc638e" d="M33.73 27.108a11.8 11.8 0 0 1 3.607 3.22c.684.934 1.22 1.97 1.594 3.054q.242-.043.479-.104a14 14 0 0 0-.501-1.99c-.17-.506-.393-.99-.567-1.494-.254-.734-.436-1.618.007-2.32.517-.818 1.576-1.001 2.407-1.345.471-.195.941-.459 1.249-.876l.04-.058-.509-.596-.116-.137a12 12 0 0 1-2.735 1.656 12.2 12.2 0 0 1-4.955.99"/><path fill="#ef82a4" d="m43.592 27.01-1.547-1.815-.04.058c-.308.417-.778.68-1.249.876-.831.344-1.89.527-2.407 1.346-.443.7-.261 1.585-.007 2.319.174.504.398.988.567 1.495a14 14 0 0 1 .5 1.987 6.6 6.6 0 0 0 2.039-.91c1.062-.715 1.865-1.673 2.542-2.685.686-1.024.475-1.646-.398-2.67m-31.05 2.936c-.237-.371-.608-.622-.986-.832-.446-.248-.93-.448-1.345-.746a2.35 2.35 0 0 1-.818-1.07L7.71 29.98c-.716 1.14-.835 1.786-.008 2.7.816.903 1.749 1.735 2.904 2.29a6.5 6.5 0 0 0 1.314.462 5.1 5.1 0 0 1 .235-1.843c.217-.706.545-1.382.656-2.117.076-.507.011-1.085-.269-1.524"/><path fill="#dc638e" d="M10.211 28.369c.416.298.899.498 1.345.746.378.21.75.461.986.832.28.439.345 1.017.269 1.524-.111.735-.439 1.411-.656 2.117a5.1 5.1 0 0 0-.235 1.843q.385.092.784.138c.267-1.19.722-2.347 1.353-3.403a11.84 11.84 0 0 1 4.91-4.508 12.46 12.46 0 0 1-6.3.299 12.3 12.3 0 0 1-3.013-1.074l-.261.417c.163.427.445.8.818 1.069"/><path fill="#f192ad" d="M25.634 29.178a1 1 0 0 1-.184.01l-.023-.002a1.4 1.4 0 0 1-.198-.023l-.018-.003-.088-.021-.017-.005a2 2 0 0 1-.19-.063 5 5 0 0 1-.575-.286l-.21-.118c-.58 1.553-1.646 2.934-2.684 4.253l2.397-4.413-.465-.26-4.904 4.957c1.328-1.898 2.736-3.865 4.672-5.087l-.539-.301a11 11 0 0 1-.287-.167 4 4 0 0 1-.294-.201 2 2 0 0 1-.125-.105l-.018-.016-.081-.082-.016-.017a1.3 1.3 0 0 1-.137-.178c-2.08.59-3.97 2.038-5.116 3.954-1.242 2.078-1.58 4.67-.889 6.891.063.203.138.409.281.559.1.106.23.178.36.244 2.129 1.077 4.992.582 6.845-1.146 2.255-2.102 2.67-5.536 2.59-8.389zm-4.178-3.076a2.7 2.7 0 0 0-.034-.5 2 2 0 0 0-.116-.386l-.03-.08-.01-.026a3 3 0 0 1-.123-.386c-1.587-.177-3.138-.814-4.628-1.441l4.608 1.074v-.008l.003-.018.001-.012.004-.024.002-.013.003-.02.002-.013.004-.017.002-.013.004-.016.003-.013.004-.017.003-.013.005-.016.003-.013.005-.018.003-.011.01-.029.001-.006.008-.023.004-.011.006-.018.005-.012.006-.017.005-.012.007-.017.005-.013.007-.017.005-.012.008-.018.005-.01.013-.029.003-.006.011-.022.006-.011.009-.018.006-.012.005-.01-5.856-3.287c2.125.757 4.334 1.57 6.01 3.037l.006-.007.01-.014.01-.014.01-.014.01-.013.016-.02.013-.018.012-.015.01-.013.012-.014.011-.014.01-.012.012-.015.01-.013.013-.014.01-.012.012-.014.012-.013.012-.014.01-.01.026-.029.01-.01.015-.017.008-.009.015-.015.01-.011.015-.015.01-.01.015-.016.01-.009.016-.016.007-.007.066-.063.002-.001.02-.018.006-.007.019-.016.008-.008.018-.016.009-.008.018-.016.008-.007.02-.016.004-.004.099-.081.005-.005.021-.016.007-.006.022-.017.005-.004.024-.018.002-.002.165-.12.003-.001.026-.018.002-.002.074-.049.006-.004.036-.023.007-.004.03-.02.008-.004.074-.045.007-.004.036-.021h.001l.039-.023.005-.003.035-.02.003-.001.079-.043.003-.001c.467-.245.944-.389 1.314-.374q.203.009.409.027c-.543-1.446-.705-3.058-.846-4.615l1.235 4.639c.196.006.39-.003.576-.044l.152-6.844c.332 2.236.653 4.571.142 6.744.211-.1.395-.254.612-.34.35-.139.752-.084 1.104.05q.323.122.598.328c1.11-2.108 1.895-4.601 1.227-6.965-.667-2.361-2.758-4.201-5.016-4.367a1.2 1.2 0 0 0-.412.024c-.19.053-.351.187-.501.324-1.646 1.503-2.634 3.827-2.634 6.175a8.86 8.86 0 0 0 1.01 4.082c-1.94-1.618-4.394-3.046-7.037-2.904-2.52.135-4.81 1.758-5.447 3.903a1.1 1.1 0 0 0-.062.403c.014.195.116.38.223.554 1.172 1.913 3.311 3.366 5.679 3.873 2.148.46 4.448.134 6.268-.857v-.072"/><path fill="#4c0d33" d="M26.169 28.977q.069-.046.134-.101l.019-.016.022-.02q.061-.053.121-.11l.04-.037.025-.024.033-.03.016-.016a5 5 0 0 1 .17-.147l.046-.036.023-.018a3 3 0 0 1 .394-.254l.035-.02.01-.006.035-.019.028-.015.005-.003.033-.018q.135-.072.274-.142l.008-.004.035-.018.057-.029.02-.01.013-.006.021-.011.014-.007.02-.01.018-.01.012-.006.024-.013.01-.005.024-.012.012-.006q.012-.008.025-.013l.008-.005.027-.014.008-.004.061-.033.008-.005.026-.014.008-.004.027-.015.008-.005.024-.013.012-.007.022-.013.12-.072a3 3 0 0 0 .342-.248l.009-.007.022-.02.01-.009.02-.018.031-.028.01-.01a3 3 0 0 0 .173-.182 2 2 0 0 0 .203-.289l.027-.05a1.4 1.4 0 0 0 .117-.322 1.2 1.2 0 0 0 .009-.46l-.013-.069-.005-.025-.006-.028-.006-.026-.008-.033-.011-.046-.007-.026-.013-.052-.012-.046-.003-.013-.022-.1-.007-.03a2 2 0 0 1-.027-.209 1.6 1.6 0 0 1 .032-.38l.031-.164.006-.032q.019-.09.033-.18.013-.086.02-.17v-.003l.003-.04v-.003l.005-.118c.01-.801-.373-1.598-.986-2.114a1 1 0 0 1 .157.306.54.54 0 0 1-.043.344c-.07.175-.14.346-.183.531-.086.366-.075.723.033 1.082.057.19.129.375.201.56.062.158.128.312.165.478.05.222.053.457-.049.665-.19.39-.662.564-1.023.748-.22.113-.438.234-.625.395-.118.101-.216.222-.326.33a2.3 2.3 0 0 1-.452.358c-.284.166-.612.232-.932.14-.363-.102-.677-.369-.912-.657-.082-.1-.158-.205-.26-.288a1.4 1.4 0 0 0-.47-.235c-.297-.094-.616-.149-.855-.365a1.04 1.04 0 0 1-.319-.906c.044-.366.196-.707.31-1.054.055-.17.107-.345.125-.524.016-.16.018-.32.041-.48.04-.284.12-.566.26-.819.143-.257.344-.455.578-.606a3.6 3.6 0 0 0-.839.322l-.003.002-.08.043-.002.001-.036.02-.004.003-.039.022-.037.021-.007.005-.074.045-.007.004-.031.02-.007.004-.036.023-.006.004-.03.02-.009.006-.035.023-.002.002-.026.018-.003.002-.165.119-.002.001-.024.019-.005.004-.022.017-.007.005-.021.017-.006.005-.098.081-.004.003-.02.017-.008.007-.018.016-.009.008-.018.016-.009.008-.018.016-.007.006-.02.019-.067.064-.007.007-.016.016-.01.01-.015.015-.01.01-.014.014-.01.011-.016.016-.008.009-.015.016-.01.01-.027.03-.01.01-.011.014-.012.013-.012.014-.01.012-.012.014-.01.013-.013.014-.01.012-.011.015-.012.014-.01.012-.012.016-.013.017-.016.02-.01.014-.01.014-.01.014-.01.014q-.09.126-.16.258l-.005.008-.006.013-.01.017-.005.011-.01.022-.004.007-.013.028-.005.01-.008.019-.005.012-.007.017-.006.012-.006.017-.005.013-.006.016-.005.013-.006.018-.004.011-.008.023-.002.006-.009.029-.003.01-.005.019-.004.012-.004.017-.003.013-.004.016-.003.014-.004.016-.002.013-.004.017-.002.012-.004.021-.002.013-.003.024-.002.011-.002.018q-.02.19.02.376a3 3 0 0 0 .133.41l.063.173q.053.144.083.294c.031.164.033.332.034.5v.116l.001.04.002.076v.02l.002.038.001.02.003.037.001.02.004.037v.006a1.4 1.4 0 0 0 .039.219l.005.018.008.027a1 1 0 0 0 .127.274q.06.095.138.18l.016.016q.039.042.081.081l.017.016a2 2 0 0 0 .183.148 3 3 0 0 0 .237.159 6 6 0 0 0 .287.167l1.733.969a5 5 0 0 0 .61.299l.12.04.034.01.018.005.088.02.018.004a2 2 0 0 0 .198.023h.023a1.2 1.2 0 0 0 .272-.023l.03-.006a1 1 0 0 0 .205-.066 1.2 1.2 0 0 0 .212-.114"/><path fill="#dc638e" d="M21.509 26.73a1.4 1.4 0 0 1-.039-.218q-.45.282-.936.52.48-.15.972-.253l.016-.004-.008-.026z"/><path fill="#ef82a4" d="M39.276 12.417c-.352-1.233-1.014-2.292-1.766-3.25-.761-.969-1.419-.96-2.664-.447l-3.153 1.3c.133.178.238.378.321.583.303.75.371 1.567.54 2.351.093.428.24.875.598 1.155.315.246.722.298 1.11.272.489-.033.962-.173 1.438-.281a22 22 0 0 1 1.83-.363c.592-.082 1.196-.114 1.79-.034q.093.013.186.03a6.6 6.6 0 0 0-.23-1.317"/><path fill="#dc638e" d="M30.087 18.963c1.854-1.953 4.153-3.602 6.865-3.995a8.4 8.4 0 0 1 2.527.022c.05-.42.058-.843.027-1.258l-.187-.03c-.593-.079-1.197-.047-1.789.035-.616.086-1.224.224-1.83.363-.476.108-.95.248-1.438.281-.388.026-.795-.026-1.11-.272-.359-.28-.505-.726-.598-1.155-.169-.784-.237-1.601-.54-2.35a2.6 2.6 0 0 0-.322-.584l-1 .412a14 14 0 0 0-.568.248q.332.667.539 1.394c.647 2.294.258 4.68-.576 6.888"/><path fill="#ef82a4" d="M16.666 10.115c-1.258-.48-1.916-.47-2.65.518-.727.977-1.361 2.054-1.68 3.295a8 8 0 0 0-.072.314q.005.003.006.002c.316.057.626.147.928.255.851.306 1.644.751 2.494 1.061.408.15.845.29 1.282.311.326.017.653-.054.906-.27.245-.208.385-.514.479-.815.136-.44.192-.902.228-1.36.065-.825.054-1.674.295-2.466z"/><path fill="#dc638e" d="M18.359 14.786c-.094.3-.234.607-.479.816-.253.215-.58.286-.906.27-.437-.023-.874-.162-1.282-.312-.85-.31-1.643-.755-2.494-1.061-.304-.11-.616-.2-.934-.257a6.6 6.6 0 0 0-.072 2.198c2.959-.145 5.736 1.2 8.07 2.917a11.7 11.7 0 0 1-.89-4.44c0-1.21.199-2.415.57-3.552l-1.06-.405c-.241.792-.23 1.64-.295 2.466-.035.458-.091.92-.228 1.36"/><path fill="#ef82a4" d="m30.292 40.861-.02-.003a3 3 0 0 1-1.078-.437 4.8 4.8 0 0 1-.93-.812 9 9 0 0 1-.426-.505c-.15-.19-.288-.386-.472-.547-.286-.25-.657-.416-1.041-.333-.413.09-.716.432-.922.781-.425.723-.792 1.487-1.292 2.163a4.5 4.5 0 0 1-.725.78q.222.178.457.333c1.069.706 2.262 1.078 3.456 1.315 1.209.24 1.702-.195 2.312-1.395"/><path fill="#dc638e" d="M26.092 32.752c-.258 2.963-1.13 5.99-3.337 8.048a8 8 0 0 1-.29.258c.28.33.591.628.92.89a4.6 4.6 0 0 0 .726-.78c.5-.676.867-1.44 1.292-2.163.206-.35.509-.691.922-.78.385-.084.755.081 1.042.332.183.16.322.356.471.547q.203.26.426.505c.278.304.583.588.93.812.33.212.692.364 1.077.437l.021.003.475-.934a8 8 0 0 1-.875-.596c-2.066-1.617-3.193-4.058-3.8-6.579"/><path fill="#61043b" d="m21.124 24.349-.001.008-4.608-1.074c1.49.627 3.041 1.264 4.628 1.441a1.2 1.2 0 0 1-.02-.375m-5.67-3.857 5.856 3.288q.07-.13.16-.258l-.005.007c-1.677-1.467-3.886-2.28-6.011-3.037m7.694 7.626c-1.936 1.221-3.344 3.188-4.672 5.086l4.904-4.957zm.697.389-2.397 4.413c1.038-1.319 2.105-2.7 2.684-4.253zm5.376-4.874-.007-.044 4.012-1.459c-1.393.253-2.83.525-4.124 1.07l-.018-.044q.09.233.137.477m-.608 1.699c-.037-.166-.104-.32-.166-.478a7 7 0 0 1-.201-.56 2.06 2.06 0 0 1-.033-1.082c.044-.185.113-.355.183-.531a.54.54 0 0 0 .043-.344 1 1 0 0 0-.157-.306c-.05-.045-.047-.045-.1-.086l-.023-.017a2.5 2.5 0 0 0-.597-.329c-.352-.133-.753-.188-1.104-.049-.217.086-.4.24-.612.34.511-2.173.19-4.508-.142-6.744l-.152 6.844c-.186.041-.38.05-.576.044l-1.236-4.64c.142 1.558.303 3.17.846 4.616q-.205-.018-.408-.028a1.8 1.8 0 0 0-.476.053 1.7 1.7 0 0 0-.577.605c-.14.253-.22.535-.26.82-.023.16-.025.32-.041.479-.018.179-.07.354-.125.524-.114.347-.266.688-.31 1.054-.04.338.063.674.32.906.238.216.557.271.854.365.167.053.333.125.47.236.102.082.178.187.26.287.235.288.549.555.912.658.32.09.648.025.932-.14.166-.098.316-.223.452-.358.11-.11.208-.23.326-.331.187-.16.405-.282.625-.395.361-.184.834-.358 1.023-.748.102-.208.099-.443.05-.665m.594-.672c2.125.238 4.325-.266 6.432-.772l-6.38.422.001-.002a2.4 2.4 0 0 1-.053.351m1.202 9.356-2.776-6.07-.274.142c.501 2.146 1.793 4.083 3.05 5.927m-1.895-6.575-.208.142-.114.068 3.004 3.485c-.785-1.302-1.608-2.643-2.682-3.695"/><path fill="#4c0d33" d="M24.04 23.724c-.029-.048.005-.109.01-.165a.16.16 0 0 0-.092-.155c-.11-.05-.39.083-.292.233.019.029.051.049.064.08.016.043-.008.088-.013.133-.009.087.067.17.153.182a.24.24 0 0 0 .225-.107c.026-.038.042-.089.018-.127-.018-.03-.055-.044-.073-.074m1.764-.751c-.03-.049.004-.11.009-.166a.16.16 0 0 0-.091-.154c-.111-.05-.39.082-.293.232.019.03.052.049.064.08.016.043-.008.088-.013.133-.008.087.067.17.154.183a.24.24 0 0 0 .224-.108c.026-.037.042-.088.018-.127-.018-.03-.054-.044-.072-.073m-2.219 2.182c-.009.028-.004.06-.018.085-.02.033-.062.042-.093.063-.062.041-.075.134-.037.197a.2.2 0 0 0 .191.089c.038-.004.08-.02.092-.056.01-.028 0-.06.009-.087.016-.045.073-.056.112-.083a.14.14 0 0 0 .052-.142c-.027-.1-.263-.21-.308-.066m1.978-.602c.038-.004.08-.02.092-.056.01-.028-.001-.06.009-.087.015-.045.073-.056.112-.083a.14.14 0 0 0 .051-.142c-.026-.099-.263-.21-.308-.066-.008.028-.003.06-.018.085-.018.033-.061.042-.093.063-.06.041-.074.134-.036.197a.2.2 0 0 0 .19.089m1.886-1.387c-.027-.1-.263-.21-.308-.066-.009.028-.004.06-.019.085-.018.033-.06.042-.092.063-.062.04-.075.134-.037.197a.2.2 0 0 0 .19.088c.039-.003.08-.02.093-.056.01-.027-.001-.059.009-.087.016-.044.073-.055.112-.082a.14.14 0 0 0 .052-.142m-2.43 2.351c-.009.027-.004.059-.018.084-.019.033-.062.042-.093.063-.061.041-.075.134-.037.197a.2.2 0 0 0 .191.089c.038-.003.08-.02.092-.056.01-.028 0-.06.009-.087.016-.045.073-.056.112-.083a.14.14 0 0 0 .052-.142c-.027-.099-.263-.21-.308-.066m2.484-1.035c-.009.028-.004.06-.018.085-.019.033-.061.042-.093.063-.061.04-.074.134-.036.197a.2.2 0 0 0 .19.088c.038-.003.08-.02.092-.056.01-.027 0-.06.01-.087.015-.044.073-.055.111-.082a.14.14 0 0 0 .052-.143c-.026-.098-.263-.21-.308-.065m-.751 1.385c-.008.027-.004.059-.018.084-.019.033-.061.042-.093.063-.061.041-.074.134-.036.197a.2.2 0 0 0 .19.089c.038-.003.08-.02.093-.056.01-.028-.001-.06.008-.087.016-.045.074-.055.113-.083a.14.14 0 0 0 .051-.142c-.026-.099-.263-.21-.308-.065m-1.214 1.06c-.01.028-.005.06-.019.085-.018.033-.061.042-.093.063-.06.04-.074.134-.036.197a.2.2 0 0 0 .19.088c.039-.003.08-.02.093-.056.01-.027-.001-.059.009-.087.015-.044.073-.055.112-.082a.14.14 0 0 0 .051-.143c-.026-.098-.262-.209-.308-.065"/></svg>
